<svg width="39" height="39" viewBox="0 0 39 39" fill="none" xmlns="http://www.w3.org/2000/svg">
<g clip-path="url(#clip0_826_457)">
<path d="M19.5 39C30.2696 39 39 30.2696 39 19.5C39 8.73045 30.2696 0 19.5 0C8.73045 0 0 8.73045 0 19.5C0 30.2696 8.73045 39 19.5 39Z" fill="#3C5A9A"/>
<path d="M25.8407 5.98535H21.521C18.9575 5.98535 16.1062 7.06351 16.1062 10.7794C16.1187 12.0741 16.1062 13.3141 16.1062 14.7096H13.1406V19.4288H16.198V33.0143H21.816V19.3391H25.5242L25.8597 14.6964H21.7192C21.7192 14.6964 21.7285 12.6311 21.7192 12.0313C21.7192 10.5629 23.2472 10.647 23.3391 10.647C24.0662 10.647 25.4799 10.6491 25.8428 10.647V5.98535H25.8407Z" fill="white"/>
</g>
<defs>
<clipPath id="clip0_826_457">
<rect width="39" height="39" fill="white"/>
</clipPath>
</defs>
</svg>
