<svg width="41" height="34" viewBox="0 0 41 34" fill="none" xmlns="http://www.w3.org/2000/svg">
<path d="M12.8937 33.8392C28.3654 33.8392 36.8278 20.819 36.8278 9.52802C36.8278 9.15809 36.8278 8.78995 36.8033 8.4218C38.4494 7.2128 39.8705 5.71578 41 4.00083C39.4648 4.69184 37.8362 5.14501 36.1686 5.34521C37.9245 4.27741 39.2388 2.59795 39.8667 0.619374C38.2155 1.6146 36.409 2.31596 34.5252 2.69321C33.2569 1.3234 31.5795 0.416365 29.7526 0.112449C27.9257 -0.191466 26.0511 0.124688 24.4189 1.01199C22.7867 1.89929 21.4878 3.30826 20.7234 5.02089C19.959 6.73351 19.7715 8.65431 20.1901 10.486C16.8457 10.3157 13.574 9.43291 10.5873 7.89492C7.6006 6.35693 4.9657 4.19813 2.85366 1.55868C1.77797 3.43966 1.44849 5.66636 1.93231 7.78542C2.41612 9.90448 3.67685 11.7566 5.4578 12.9646C4.11918 12.9243 2.80975 12.5575 1.64 11.8952V12.0034C1.64051 13.9761 2.31281 15.8879 3.54286 17.4146C4.77291 18.9412 6.48498 19.9886 8.38866 20.3792C7.15024 20.7223 5.85088 20.7724 4.5904 20.5258C5.12791 22.2236 6.1744 23.7083 7.5835 24.7722C8.99259 25.8361 10.6938 26.4261 12.4493 26.4595C9.47058 28.8374 5.79094 30.1283 2.00243 30.1244C1.33316 30.1231 0.664532 30.0819 0 30.0011C3.84685 32.5086 8.32287 33.8387 12.8937 33.8325" fill="#1DA1F2"/>
</svg>
