<svg width="40" height="40" viewBox="0 0 40 40" fill="none" xmlns="http://www.w3.org/2000/svg">
<path d="M0 40.0008L2.81406 29.7359C1.07969 26.725 0.163281 23.3219 0.163281 19.8203C0.163281 8.89062 9.06406 0 19.9836 0C25.2852 0 30.2594 2.06172 34.0117 5.81406C37.7531 9.55547 39.8148 14.5406 39.8148 19.8312C39.8148 30.7609 30.9141 39.6516 19.9945 39.6516H19.9836C16.6672 39.6516 13.4063 38.8227 10.5156 37.2406L0 40.0008ZM10.9953 33.6633L11.5953 34.0234C14.1258 35.5289 17.0273 36.3141 19.9836 36.325H19.9945C29.0813 36.325 36.4656 28.9398 36.4656 19.8539C36.4656 15.4469 34.7531 11.3125 31.6445 8.20391C28.5359 5.09531 24.4016 3.37187 19.9945 3.37187C10.9078 3.37187 3.5125 10.757 3.5125 19.843C3.5125 22.9516 4.38516 25.9844 6.03203 28.6133L6.425 29.2352L4.75625 35.3109L10.9953 33.6633Z" fill="white"/>
<path d="M0.686523 39.3131L3.40293 29.3975C1.72324 26.4959 0.850586 23.2014 0.850586 19.8311C0.850586 9.28262 9.43496 0.698242 19.9834 0.698242C25.099 0.698242 29.91 2.69434 33.5201 6.30527C37.1311 9.92715 39.1271 14.7264 39.1162 19.842C39.1162 30.3904 30.5318 38.9748 19.9834 38.9748H19.9725C16.7654 38.9748 13.624 38.1678 10.8318 36.6514L0.686523 39.3131Z" fill="url(#paint0_linear_826_461)"/>
<path d="M0 40.0008L2.81406 29.7359C1.07969 26.725 0.163281 23.3219 0.163281 19.8203C0.163281 8.89062 9.06406 0 19.9836 0C25.2852 0 30.2594 2.06172 34.0117 5.81406C37.7531 9.55547 39.8148 14.5406 39.8148 19.8312C39.8148 30.7609 30.9141 39.6516 19.9945 39.6516H19.9836C16.6672 39.6516 13.4063 38.8227 10.5156 37.2406L0 40.0008ZM10.9953 33.6633L11.5953 34.0234C14.1258 35.5289 17.0273 36.3141 19.9836 36.325H19.9945C29.0813 36.325 36.4656 28.9398 36.4656 19.8539C36.4656 15.4469 34.7531 11.3125 31.6445 8.20391C28.5359 5.09531 24.4016 3.37187 19.9945 3.37187C10.9078 3.37187 3.5125 10.757 3.5125 19.843C3.5125 22.9516 4.38516 25.9844 6.03203 28.6133L6.425 29.2352L4.75625 35.3109L10.9953 33.6633Z" fill="url(#paint1_linear_826_461)"/>
<path d="M15.0316 11.5414C14.6605 10.7125 14.2684 10.7016 13.9191 10.6906C13.6355 10.6797 13.2973 10.6797 12.9699 10.6797C12.6426 10.6797 12.1082 10.8 11.6504 11.3016C11.1926 11.7922 9.91602 12.9922 9.91602 15.4359C9.91602 17.8688 11.6941 20.2242 11.934 20.5625C12.1848 20.8898 15.359 26.0492 20.3988 28.0344C24.5879 29.6812 25.4387 29.3539 26.3434 29.2781C27.2488 29.1906 29.2777 28.0781 29.6918 26.9219C30.1066 25.7656 30.1066 24.7727 29.9754 24.5656C29.8551 24.3586 29.5176 24.2383 29.0262 23.9875C28.5355 23.7367 26.0918 22.5367 25.6449 22.3734C25.1871 22.2102 24.8598 22.1227 24.5324 22.6242C24.2051 23.1148 23.2559 24.2383 22.9613 24.5656C22.6777 24.893 22.3832 24.9367 21.8926 24.6859C21.402 24.4352 19.798 23.9117 17.9113 22.2312C16.4387 20.9227 15.4465 19.2969 15.152 18.8063C14.8684 18.3156 15.1191 18.043 15.3699 17.7922C15.5879 17.5742 15.8605 17.2141 16.1113 16.9195C16.3621 16.625 16.4387 16.4289 16.602 16.0906C16.7652 15.7633 16.6895 15.4687 16.5582 15.218C16.4387 14.9664 15.4785 12.5234 15.0316 11.5414Z" fill="white"/>
<defs>
<linearGradient id="paint0_linear_826_461" x1="19.9014" y1="39.3134" x2="19.9014" y2="0.698703" gradientUnits="userSpaceOnUse">
<stop stop-color="#20B038"/>
<stop offset="1" stop-color="#60D66A"/>
</linearGradient>
<linearGradient id="paint1_linear_826_461" x1="19.907" y1="40.0008" x2="19.907" y2="0.000782013" gradientUnits="userSpaceOnUse">
<stop stop-color="#F9F9F9"/>
<stop offset="1" stop-color="white"/>
</linearGradient>
</defs>
</svg>
