<svg width="29" height="22" viewBox="0 0 29 22" fill="none" xmlns="http://www.w3.org/2000/svg">
<path d="M8.7 11.31C11.5048 11.31 13.775 9.03988 13.775 6.23503C13.775 3.43019 11.5048 1.16003 8.7 1.16003C5.89516 1.16003 3.625 3.43019 3.625 6.23503C3.625 9.03988 5.89516 11.31 8.7 11.31ZM12.18 12.76H11.8039C10.8614 13.2132 9.81469 13.485 8.7 13.485C7.58531 13.485 6.54313 13.2132 5.59609 12.76H5.22C2.33813 12.76 0 15.0982 0 17.98V19.285C0 20.4858 0.974219 21.46 2.175 21.46H15.225C16.4258 21.46 17.4 20.4858 17.4 19.285V17.98C17.4 15.0982 15.0619 12.76 12.18 12.76ZM21.75 11.31C24.1516 11.31 26.1 9.3616 26.1 6.96003C26.1 4.55847 24.1516 2.61003 21.75 2.61003C19.3484 2.61003 17.4 4.55847 17.4 6.96003C17.4 9.3616 19.3484 11.31 21.75 11.31ZM23.925 12.76H23.7528C23.123 12.9775 22.4569 13.1225 21.75 13.1225C21.0431 13.1225 20.377 12.9775 19.7472 12.76H19.575C18.6506 12.76 17.7988 13.0274 17.0511 13.4578C18.1567 14.6496 18.85 16.231 18.85 17.98V19.72C18.85 19.8197 18.8273 19.9149 18.8228 20.01H26.825C28.0258 20.01 29 19.0358 29 17.835C29 15.0302 26.7298 12.76 23.925 12.76Z" fill="#61656A"/>
<path d="M25.23 0.281538L25.7332 1.83035L25.7528 1.89047H25.816H27.4445L26.127 2.84768L26.0759 2.88484L26.0954 2.94495L26.5986 4.49377L25.2811 3.53655L25.23 3.49939L25.1789 3.53655L23.8614 4.49377L24.3646 2.94495L24.3841 2.88484L24.333 2.84768L23.0155 1.89047H24.644H24.7072L24.7268 1.83035L25.23 0.281538Z" fill="#61656A" stroke="white" stroke-width="0.174"/>
</svg>
