<svg width="108" height="102" viewBox="0 0 108 102" fill="none" xmlns="http://www.w3.org/2000/svg">
<path d="M53.3978 83.9414H59.1906C59.1906 87.0695 63.1587 89.7343 67.8799 89.7343C72.6011 89.7343 76.5692 87.0695 76.5692 83.9414C76.5692 80.7553 73.5569 79.5968 67.1847 78.0617C61.0443 76.5266 53.3978 74.6149 53.3978 66.5629C53.3978 61.3783 57.6555 56.9757 63.5353 55.4985V49.1843H72.2245V55.4985C78.1043 56.9757 82.362 61.3783 82.362 66.5629H76.5692C76.5692 63.4347 72.6011 60.77 67.8799 60.77C63.1587 60.77 59.1906 63.4347 59.1906 66.5629C59.1906 69.7489 62.2029 70.9075 68.575 72.4426C74.7154 73.9777 82.362 75.8894 82.362 83.9414C82.362 89.126 78.1043 93.5286 72.2245 95.0057V101.32H63.5353V95.0057C57.6555 93.5286 53.3978 89.126 53.3978 83.9414Z" fill="#444444"/>
<path d="M89.0925 15.0948L104 4H80.2353L89.0925 15.0948Z" fill="#444444"/>
<path d="M98.0588 24.7941L104 4L89.0925 15.0948L98.0588 24.7941Z" fill="#444444"/>
<path d="M3 49.1842L43.2881 22.6053V49.1842L89.0925 15.0948M104 4H80.2353L89.0925 15.0948M104 4L98.0588 24.7941L89.0925 15.0948M104 4L89.0925 15.0948" stroke="#444444" stroke-width="7.83379" stroke-linejoin="round"/>
</svg>
