<svg width="137" height="75" viewBox="0 0 137 75" fill="none" xmlns="http://www.w3.org/2000/svg">
<path d="M77.8336 59.086C75.097 58.1402 70.6255 58.0929 68.6464 57.3598C67.2781 56.8396 65.1035 56.2721 64.3949 55.4445C63.6863 54.6169 63.6863 48.7053 63.6863 48.7053C63.6863 48.7053 65.3967 47.1446 66.1053 45.3948C66.8138 43.6686 67.2781 38.8921 67.2781 38.8921C67.2781 38.8921 68.8907 39.5541 69.526 36.4328C70.0636 33.7371 71.0898 32.3184 70.821 30.3321C70.5278 28.3458 69.4038 28.8187 69.4038 28.8187C69.4038 28.8187 70.821 26.8088 70.821 19.975C70.821 12.9284 65.3234 6 55.0366 6C44.7743 6 39.2278 12.952 39.2278 19.975C39.2278 26.8088 40.6205 28.8187 40.6205 28.8187C40.6205 28.8187 39.4721 28.3458 39.2034 30.3321C38.9102 32.3184 39.9364 33.7371 40.4984 36.4328C41.1337 39.5778 42.7463 38.8921 42.7463 38.8921C42.7463 38.8921 43.2105 43.645 43.9191 45.3948C44.6277 47.1446 46.3381 48.7053 46.3381 48.7053C46.3381 48.7053 46.3381 54.6169 45.6295 55.4445C44.9209 56.2721 42.7463 56.8396 41.378 57.3362C39.4233 58.0692 34.9518 58.1638 32.1908 59.1097C29.4542 60.0555 21 64.3591 21 75H88.9999C89.0244 64.3355 80.5702 60.0319 77.8336 59.086Z" fill="#444444"/>
<path d="M26.5813 47.2839C26.5813 47.2839 32.4365 47.0926 34.7639 45.0593C30.9666 39.4379 33.0245 32.8835 32.2405 26.7598C31.4566 20.6599 27.9042 17 20.7996 17H20.7016C13.8419 17 10.1425 20.636 9.35857 26.7598C8.57461 32.8596 10.755 40.1555 6.85969 45.0593C9.18708 47.1165 15.0668 47.0447 15.0668 47.0447C15.0668 47.0447 15.3118 50.4893 14.8218 51.0634C14.3318 51.6375 12.8864 52.1877 11.882 52.3791C9.72606 52.8336 7.44766 53.4555 5.53675 54.1014C3.62583 54.7473 0 58.2158 0 63H19.6726C20.2116 61.0863 23.9109 57.6656 27.5122 55.8716C29.7171 54.7712 31.8975 54.843 33.5635 54.6277C33.5635 54.6277 34.4944 53.1924 31.4321 52.6422C31.4321 52.6422 27.2183 51.6136 26.7283 51.0395C26.2628 50.5133 26.5813 47.2839 26.5813 47.2839ZM83.4187 47.2839C83.4187 47.2839 77.5635 47.0926 75.2361 45.0593C79.0334 39.4379 76.9755 32.8835 77.7595 26.7598C78.5434 20.6599 82.0958 17 89.2004 17H89.2984C96.1581 17 99.8575 20.636 100.641 26.7598C101.425 32.8596 99.245 40.1555 103.14 45.0593C100.813 47.1165 94.9332 47.0447 94.9332 47.0447C94.9332 47.0447 94.6882 50.4893 95.1782 51.0634C95.6682 51.6375 97.1136 52.1877 98.118 52.3791C100.274 52.8336 102.552 53.4555 104.463 54.1014C106.374 54.7473 110 58.2158 110 63H90.3274C89.7884 61.0863 86.0891 57.6656 82.4878 55.8716C80.2829 54.7712 78.1024 54.843 76.4365 54.6277C76.4365 54.6277 75.5056 53.1924 78.5679 52.6422C78.5679 52.6422 82.7817 51.6136 83.2717 51.0395C83.7372 50.5133 83.4187 47.2839 83.4187 47.2839Z" fill="#444444"/>
<path d="M69.5 0.809018L70.9461 5.25963L71.0022 5.43237H71.1839H75.8635L72.0776 8.183L71.9306 8.28976L71.9868 8.46251L73.4329 12.9131L69.6469 10.1625L69.5 10.0557L69.3531 10.1625L65.5671 12.9131L67.0132 8.46251L67.0694 8.28976L66.9224 8.183L63.1365 5.43237H67.8161H67.9978L68.0539 5.25963L69.5 0.809018Z" fill="#444444" stroke="white" stroke-width="0.5"/>
<path d="M84.5 0.809018L85.9461 5.25963L86.0022 5.43237H86.1839H90.8635L87.0776 8.183L86.9306 8.28976L86.9868 8.46251L88.4329 12.9131L84.6469 10.1625L84.5 10.0557L84.3531 10.1625L80.5671 12.9131L82.0132 8.46251L82.0694 8.28976L81.9224 8.183L78.1365 5.43237H82.8161H82.9978L83.0539 5.25963L84.5 0.809018Z" fill="#444444" stroke="white" stroke-width="0.5"/>
<path d="M129.5 0.809018L130.946 5.25963L131.002 5.43237H131.184H135.864L132.078 8.183L131.931 8.28976L131.987 8.46251L133.433 12.9131L129.647 10.1625L129.5 10.0557L129.353 10.1625L125.567 12.9131L127.013 8.46251L127.069 8.28976L126.922 8.183L123.136 5.43237H127.816H127.998L128.054 5.25963L129.5 0.809018Z" fill="#444444" stroke="white" stroke-width="0.5"/>
<path d="M114.5 0.809018L115.946 5.25963L116.002 5.43237H116.184H120.864L117.078 8.183L116.931 8.28976L116.987 8.46251L118.433 12.9131L114.647 10.1625L114.5 10.0557L114.353 10.1625L110.567 12.9131L112.013 8.46251L112.069 8.28976L111.922 8.183L108.136 5.43237H112.816H112.998L113.054 5.25963L114.5 0.809018Z" fill="#444444" stroke="white" stroke-width="0.5"/>
<path d="M99.5 0.809018L100.946 5.25963L101.002 5.43237H101.184H105.864L102.078 8.183L101.931 8.28976L101.987 8.46251L103.433 12.9131L99.6469 10.1625L99.5 10.0557L99.3531 10.1625L95.5671 12.9131L97.0132 8.46251L97.0694 8.28976L96.9224 8.183L93.1365 5.43237H97.8161H97.9978L98.0539 5.25963L99.5 0.809018Z" fill="#444444" stroke="white" stroke-width="0.5"/>
</svg>
