<svg width="26" height="34" viewBox="0 0 26 34" fill="none" xmlns="http://www.w3.org/2000/svg">
<g filter="url(#filter0_d_95_1202)">
<circle cx="12" cy="19.697" r="9.39394" stroke="#61656A" stroke-width="1.21212" shape-rendering="crispEdges"/>
</g>
<g filter="url(#filter1_d_95_1202)">
<circle cx="11.697" cy="19.3939" r="4.24242" stroke="#61656A" stroke-width="1.21212" shape-rendering="crispEdges"/>
</g>
<g filter="url(#filter2_d_95_1202)">
<path d="M11.697 9.5C11.1229 9.5 10.5723 9.23661 10.1664 8.76777C9.7605 8.29893 9.53246 7.66304 9.53246 7C9.53246 6.33696 9.7605 5.70107 10.1664 5.23223C10.5723 4.76339 11.1229 4.5 11.697 4.5C12.271 4.5 12.8216 4.76339 13.2275 5.23223C13.6334 5.70107 13.8615 6.33696 13.8615 7C13.8615 7.3283 13.8055 7.65339 13.6967 7.95671C13.5879 8.26002 13.4285 8.53562 13.2275 8.76777C13.0265 8.99991 12.7879 9.18406 12.5253 9.3097C12.2627 9.43534 11.9812 9.5 11.697 9.5ZM11.697 0C10.0896 0 8.54805 0.737498 7.41146 2.05025C6.27488 3.36301 5.63635 5.14348 5.63635 7C5.63635 12.25 11.697 20 11.697 20C11.697 20 17.7576 12.25 17.7576 7C17.7576 5.14348 17.119 3.36301 15.9825 2.05025C14.8459 0.737498 13.3043 0 11.697 0Z" fill="#61656A"/>
</g>
<defs>
<filter id="filter0_d_95_1202" x="0.787879" y="8.48484" width="24.8485" height="24.8485" filterUnits="userSpaceOnUse" color-interpolation-filters="sRGB">
<feFlood flood-opacity="0" result="BackgroundImageFix"/>
<feColorMatrix in="SourceAlpha" type="matrix" values="0 0 0 0 0 0 0 0 0 0 0 0 0 0 0 0 0 0 127 0" result="hardAlpha"/>
<feOffset dx="1.21212" dy="1.21212"/>
<feGaussianBlur stdDeviation="1.21212"/>
<feComposite in2="hardAlpha" operator="out"/>
<feColorMatrix type="matrix" values="0 0 0 0 0 0 0 0 0 0 0 0 0 0 0 0 0 0 0.25 0"/>
<feBlend mode="normal" in2="BackgroundImageFix" result="effect1_dropShadow_95_1202"/>
<feBlend mode="normal" in="SourceGraphic" in2="effect1_dropShadow_95_1202" result="shape"/>
</filter>
<filter id="filter1_d_95_1202" x="5.63639" y="13.3333" width="14.5455" height="14.5454" filterUnits="userSpaceOnUse" color-interpolation-filters="sRGB">
<feFlood flood-opacity="0" result="BackgroundImageFix"/>
<feColorMatrix in="SourceAlpha" type="matrix" values="0 0 0 0 0 0 0 0 0 0 0 0 0 0 0 0 0 0 127 0" result="hardAlpha"/>
<feOffset dx="1.21212" dy="1.21212"/>
<feGaussianBlur stdDeviation="1.21212"/>
<feComposite in2="hardAlpha" operator="out"/>
<feColorMatrix type="matrix" values="0 0 0 0 0 0 0 0 0 0 0 0 0 0 0 0 0 0 0.25 0"/>
<feBlend mode="normal" in2="BackgroundImageFix" result="effect1_dropShadow_95_1202"/>
<feBlend mode="normal" in="SourceGraphic" in2="effect1_dropShadow_95_1202" result="shape"/>
</filter>
<filter id="filter2_d_95_1202" x="5.63635" y="0" width="14.5455" height="22.4242" filterUnits="userSpaceOnUse" color-interpolation-filters="sRGB">
<feFlood flood-opacity="0" result="BackgroundImageFix"/>
<feColorMatrix in="SourceAlpha" type="matrix" values="0 0 0 0 0 0 0 0 0 0 0 0 0 0 0 0 0 0 127 0" result="hardAlpha"/>
<feOffset dx="1.21212" dy="1.21212"/>
<feGaussianBlur stdDeviation="0.606061"/>
<feComposite in2="hardAlpha" operator="out"/>
<feColorMatrix type="matrix" values="0 0 0 0 0 0 0 0 0 0 0 0 0 0 0 0 0 0 0.25 0"/>
<feBlend mode="normal" in2="BackgroundImageFix" result="effect1_dropShadow_95_1202"/>
<feBlend mode="normal" in="SourceGraphic" in2="effect1_dropShadow_95_1202" result="shape"/>
</filter>
</defs>
</svg>
