<svg width="25" height="25" viewBox="0 0 25 25" fill="none" xmlns="http://www.w3.org/2000/svg">
<path d="M13.8478 2.2814e-06C14.2153 2.2814e-06 14.544 0.228749 14.6678 0.571245L15.5503 3.01747C15.8665 3.09621 16.1378 3.17496 16.3678 3.25746C16.619 3.34746 16.9428 3.48371 17.3427 3.66996L19.3977 2.58247C19.5655 2.49361 19.7575 2.46153 19.945 2.49105C20.1325 2.52058 20.3054 2.61011 20.4377 2.74622L22.2452 4.61495C22.4852 4.86369 22.5527 5.22744 22.4177 5.54494L21.454 7.80366C21.6139 8.0974 21.7414 8.34865 21.8389 8.55865C21.9439 8.7874 22.0739 9.10239 22.2289 9.50864L24.4752 10.4711C24.8127 10.6149 25.0214 10.9524 24.9989 11.3136L24.8339 13.9073C24.8226 14.0758 24.7621 14.2373 24.6599 14.3718C24.5577 14.5062 24.4183 14.6077 24.2589 14.6636L22.1314 15.4198C22.0702 15.7136 22.0064 15.9648 21.9389 16.1773C21.8301 16.5055 21.7058 16.8283 21.5664 17.1448L22.6352 19.5073C22.7106 19.6733 22.7309 19.859 22.6931 20.0374C22.6553 20.2158 22.5615 20.3774 22.4252 20.4985L20.3927 22.3135C20.2589 22.4325 20.0918 22.5078 19.914 22.5292C19.7362 22.5507 19.556 22.5173 19.3977 22.4335L17.3027 21.3235C16.975 21.497 16.6369 21.6502 16.2903 21.7822L15.3753 22.1247L14.5628 24.3747C14.5026 24.5395 14.394 24.6822 14.2512 24.7841C14.1084 24.8861 13.9382 24.9425 13.7628 24.946L11.3878 24.9997C11.2078 25.0044 11.0307 24.9532 10.8809 24.8532C10.7312 24.7531 10.6161 24.6091 10.5516 24.441L9.59409 21.9072C9.26741 21.7956 8.94395 21.6747 8.62411 21.5447C8.3625 21.4315 8.10485 21.3094 7.85161 21.1785L5.47664 22.1935C5.32015 22.2602 5.14763 22.2801 4.98008 22.2506C4.81252 22.221 4.65716 22.1435 4.5329 22.0272L2.77543 20.3785C2.64458 20.2563 2.55547 20.096 2.5207 19.9204C2.48593 19.7447 2.50726 19.5626 2.58168 19.3998L3.60292 17.1748C3.4671 16.9113 3.34118 16.6427 3.22542 16.3698C3.0903 16.0357 2.96524 15.6977 2.85042 15.3561L0.612952 14.6748C0.43108 14.6199 0.272449 14.5064 0.161695 14.352C0.0509402 14.1976 -0.00573906 14.011 0.000459331 13.8211L0.0879583 11.4199C0.0941864 11.2632 0.143128 11.1112 0.229492 10.9803C0.315855 10.8495 0.436352 10.7447 0.577952 10.6774L2.92542 9.54989C3.03417 9.15114 3.12917 8.84115 3.21292 8.6149C3.33085 8.31271 3.4618 8.01577 3.60542 7.72491L2.58793 5.57493C2.51071 5.41166 2.48726 5.22811 2.52095 5.05067C2.55464 4.87323 2.64374 4.71105 2.77543 4.58745L4.5304 2.92997C4.65343 2.81393 4.80736 2.73592 4.97368 2.70532C5.14 2.67472 5.31162 2.69283 5.46789 2.75747L7.84036 3.73746C8.10286 3.56246 8.34036 3.42121 8.55536 3.30746C8.8116 3.17121 9.1541 3.02872 9.58534 2.87497L10.4103 0.573745C10.4713 0.405333 10.5828 0.259851 10.7296 0.157164C10.8763 0.0544777 11.0512 -0.000407808 11.2303 2.2814e-06H13.8478ZM12.5303 8.77365C10.4466 8.77365 8.75785 10.4424 8.75785 12.5024C8.75785 14.5623 10.4466 16.2323 12.5303 16.2323C14.6128 16.2323 16.3015 14.5623 16.3015 12.5024C16.3015 10.4424 14.614 8.77365 12.5303 8.77365Z" fill="#61656A"/>
<circle cx="12.4998" cy="12.4999" r="6.87492" fill="white"/>
<path d="M15.491 11.6547L16.8748 10.6249H14.6689L15.491 11.6547Z" fill="#61656A"/>
<path d="M16.3233 12.555L16.8748 10.6249L15.491 11.6547L16.3233 12.555Z" fill="#61656A"/>
<path d="M7.49988 14.8189L11.2394 12.3518V14.8189L15.491 11.6547M16.8748 10.6249H14.6689L15.491 11.6547M16.8748 10.6249L16.3233 12.555L15.491 11.6547M16.8748 10.6249L15.491 11.6547" stroke="#61656A" stroke-width="0.727138" stroke-linejoin="round"/>
</svg>
