<svg width="21" height="24" viewBox="0 0 21 24" fill="none" xmlns="http://www.w3.org/2000/svg">
<path d="M3.60208 7.59681C3.55544 7.54996 3.5 7.51278 3.43896 7.48741C3.37791 7.46204 3.31246 7.44898 3.24635 7.44898C3.18024 7.44898 3.11478 7.46204 3.05374 7.48741C2.99269 7.51278 2.93726 7.54996 2.89062 7.59681C2.84377 7.64344 2.80659 7.69888 2.78122 7.75992C2.75586 7.82097 2.7428 7.88643 2.7428 7.95253C2.7428 8.01864 2.75586 8.0841 2.78122 8.14514C2.80659 8.20619 2.84377 8.26162 2.89062 8.30826L4.69931 10.117L4.72866 10.1463C4.77278 10.1905 4.82518 10.2256 4.88286 10.2495C4.94054 10.2734 5.00238 10.2857 5.06482 10.2857C5.12727 10.2857 5.18911 10.2734 5.24679 10.2495C5.30447 10.2256 5.35687 10.1905 5.40098 10.1463L8.52496 7.02233C8.56916 6.97821 8.60422 6.92582 8.62815 6.86813C8.65207 6.81045 8.66439 6.74862 8.66439 6.68617C8.66439 6.62372 8.65207 6.56189 8.62815 6.50421C8.60422 6.44652 8.56916 6.39413 8.52496 6.35001L8.48582 6.31087C8.44171 6.26668 8.38931 6.23161 8.33163 6.20769C8.27395 6.18376 8.21211 6.17145 8.14966 6.17145C8.08722 6.17145 8.02538 6.18376 7.9677 6.20769C7.91002 6.23161 7.85762 6.26668 7.8135 6.31087L5.06413 9.05886L3.60208 7.59681Z" fill="#61656A"/>
<path d="M10.2857 0L0 3.42857V13.7143C0 19.3955 4.60446 24 10.2857 24C15.967 24 20.5714 19.3955 20.5714 13.7143V3.42857L10.2857 0ZM18.6429 13.7143C18.6429 18.3295 14.9009 22.0714 10.2857 22.0714C5.67054 22.0714 1.92857 18.3295 1.92857 13.7143V4.875L10.2857 1.92857L18.6429 4.875V13.7143Z" fill="#61656A"/>
<path d="M10.2858 1.71429V22.6286" stroke="#61656A" stroke-width="0.685714"/>
<path d="M1.71423 12H18.8571" stroke="#61656A" stroke-width="0.685714"/>
<path d="M18.8572 12H10.2858V22.6286C17.3035 21.0677 19.4916 18.9607 18.8572 12Z" fill="#61656A"/>
</svg>
