<svg width="30" height="35" viewBox="0 0 30 35" fill="none" xmlns="http://www.w3.org/2000/svg">
<path d="M5.25311 11.0786C5.1851 11.0103 5.10426 10.9561 5.01523 10.9191C4.92621 10.8821 4.83075 10.8631 4.73434 10.8631C4.63794 10.8631 4.54248 10.8821 4.45346 10.9191C4.36443 10.9561 4.28359 11.0103 4.21557 11.0786C4.14725 11.1467 4.09303 11.2275 4.05604 11.3165C4.01904 11.4056 4 11.501 4 11.5974C4 11.6938 4.01904 11.7893 4.05604 11.8783C4.09303 11.9673 4.14725 12.0482 4.21557 12.1162L6.85325 14.7539L6.89606 14.7967C6.96039 14.8611 7.0368 14.9123 7.12092 14.9472C7.20504 14.982 7.29522 15 7.38629 15C7.47736 15 7.56753 14.982 7.65165 14.9472C7.73577 14.9123 7.81219 14.8611 7.87652 14.7967L12.4323 10.2409C12.4968 10.1765 12.5479 10.1001 12.5828 10.016C12.6177 9.93188 12.6357 9.84171 12.6357 9.75064C12.6357 9.65957 12.6177 9.56939 12.5828 9.48527C12.5479 9.40115 12.4968 9.32474 12.4323 9.2604L12.3752 9.20333C12.3109 9.13887 12.2345 9.08774 12.1504 9.05285C12.0663 9.01796 11.9761 9 11.885 9C11.7939 9 11.7038 9.01796 11.6196 9.05285C11.5355 9.08774 11.4591 9.13887 11.3948 9.20333L7.38527 13.2108L5.25311 11.0786Z" fill="#444444"/>
<path d="M15 0L0 5V20C0 28.2852 6.71484 35 15 35C23.2852 35 30 28.2852 30 20V5L15 0ZM27.1875 20C27.1875 26.7305 21.7305 32.1875 15 32.1875C8.26953 32.1875 2.8125 26.7305 2.8125 20V7.10938L15 2.8125L27.1875 7.10938V20Z" fill="#444444"/>
<path d="M15 2.5V33" stroke="#444444"/>
<path d="M2.5 17.5H27.5" stroke="#444444"/>
<path d="M27.5 17.5H15V33C25.2342 30.7237 28.4252 27.651 27.5 17.5Z" fill="#444444"/>
</svg>
