<svg width="109" height="82" viewBox="0 0 109 82" fill="none" xmlns="http://www.w3.org/2000/svg">
<path d="M12.1111 0C5.40156 0 0 5.41818 0 12.1482V69.8518C0 76.582 5.40156 82 12.1111 82H96.8889C103.598 82 109 76.582 109 69.8518V12.1482C109 5.41818 103.598 0 96.8889 0H12.1111ZM12.1111 6.07419H96.8889C100.244 6.07419 102.944 8.78311 102.944 12.1482V69.8518C102.944 73.2169 100.244 75.926 96.8889 75.926H12.1111C8.75633 75.926 6.05558 73.2169 6.05558 69.8518V12.1482C6.05558 8.78311 8.75633 6.07419 12.1111 6.07419ZM12.1111 12.1482V69.8518H30.2778V12.1482H12.1111ZM36.3333 12.1482V27.3334H96.8889V12.1482H36.3333ZM43.9028 15.1853C46.4111 15.1853 48.4444 17.2249 48.4444 19.7408C48.4444 22.2568 46.4111 24.2964 43.9028 24.2964C41.3945 24.2964 39.3611 22.2568 39.3611 19.7408C39.3611 17.2249 41.3945 15.1853 43.9028 15.1853ZM59.1363 15.1853C61.6446 15.1853 63.678 17.2249 63.678 19.7408C63.678 22.2568 61.6446 24.2964 59.1363 24.2964C56.628 24.2964 54.5946 22.2568 54.5946 19.7408C54.5946 17.2249 56.628 15.1853 59.1363 15.1853ZM74.2752 15.1853C76.7835 15.1853 78.8168 17.2249 78.8168 19.7408C78.8168 22.2568 76.7835 24.2964 74.2752 24.2964C71.7669 24.2964 69.7335 22.2568 69.7335 19.7408C69.7335 17.2249 71.7669 15.1853 74.2752 15.1853ZM89.414 15.1853C91.9223 15.1853 93.9557 17.2249 93.9557 19.7408C93.9557 22.2568 91.9223 24.2964 89.414 24.2964C86.9057 24.2964 84.8724 22.2568 84.8724 19.7408C84.8724 17.2249 86.9057 15.1853 89.414 15.1853ZM36.3333 33.4074V69.8518H42.3889V48.5926H45.4167V69.8518H51.4722V39.4815H54.5V69.8518H60.5556V60.7407H63.5833V69.8518H69.6389V48.5926H72.6667V69.8518H78.7222V51.6296H81.75V69.8518H87.8056V42.5186H90.8333V69.8518H96.8889V33.4074H36.3333Z" fill="#444444"/>
</svg>
